<svg width="13" height="12" viewBox="0 0 13 12" fill="none" xmlns="http://www.w3.org/2000/svg">
<path d="M10.6155 7.69C10.0005 7.69 9.40547 7.59 8.85047 7.41C8.67547 7.35 8.48047 7.395 8.34547 7.53L7.56047 8.515C6.14547 7.84 4.82047 6.565 4.11547 5.1L5.09047 4.27C5.22547 4.13 5.26547 3.935 5.21047 3.76C5.02547 3.205 4.93047 2.61 4.93047 1.995C4.93047 1.725 4.70547 1.5 4.43547 1.5H2.70547C2.43547 1.5 2.11047 1.62 2.11047 1.995C2.11047 6.64 5.97547 10.5 10.6155 10.5C10.9705 10.5 11.1105 10.185 11.1105 9.91V8.185C11.1105 7.915 10.8855 7.69 10.6155 7.69Z" fill="#3683BC"/>
</svg>
