<svg width="89" height="89" viewBox="0 0 89 89" fill="none" xmlns="http://www.w3.org/2000/svg">
<path d="M5.81999 22.37L22.38 5.81C19.44 7.49 16.71 9.5 14.24 11.78L11.79 14.23C9.50999 16.71 7.49999 19.43 5.81999 22.37Z" fill="#D6E5F0"/>
<path d="M0.87999 35.53L35.54 0.870026C34.58 1.06003 33.64 1.29001 32.7 1.54001L1.54999 32.69C1.28999 33.63 1.06999 34.58 0.87999 35.53Z" fill="#D6E5F0"/>
<path d="M0 44.34C0 44.43 0 44.53 0 44.62L44.62 0C44.53 0 44.43 0 44.34 0C43.7 0 43.05 0.0200085 42.42 0.0400085L0.0399933 42.42C0.0199933 43.06 0 43.7 0 44.34Z" fill="#D6E5F0"/>
<path d="M0.689987 52.16L52.16 0.690002C51.54 0.580002 50.91 0.480024 50.29 0.400024L0.399994 50.29C0.479994 50.91 0.579987 51.54 0.689987 52.16Z" fill="#D6E5F0"/>
<path d="M2.37 58.69L58.69 2.37003C58.15 2.18003 57.6 2.01001 57.05 1.85001L1.84999 57.05C2.00999 57.6 2.19 58.15 2.37 58.69Z" fill="#D6E5F0"/>
<path d="M4.81999 64.46L64.47 4.81C63.99 4.56 63.5 4.33001 63.01 4.10001L4.10999 63C4.33999 63.5 4.56999 63.98 4.81999 64.46Z" fill="#D6E5F0"/>
<path d="M7.89999 69.6L69.61 7.89001C69.18 7.59001 68.75 7.30002 68.31 7.02002L7.03 68.3C7.31 68.75 7.59999 69.18 7.89999 69.6Z" fill="#D6E5F0"/>
<path d="M11.54 74.18L74.18 11.54C73.8 11.2 73.42 10.86 73.03 10.53L10.53 73.03C10.86 73.42 11.19 73.8 11.54 74.18Z" fill="#D6E5F0"/>
<path d="M15.72 78.21L78.21 15.72C77.88 15.33 77.54 14.94 77.2 14.56L14.56 77.2C14.95 77.55 15.33 77.88 15.72 78.21Z" fill="#D6E5F0"/>
<path d="M20.45 81.71L81.71 20.45C81.43 20.01 81.14 19.58 80.84 19.15L19.15 80.84C19.58 81.13 20.01 81.42 20.45 81.71Z" fill="#D6E5F0"/>
<path d="M25.76 84.61L84.61 25.76C84.38 25.27 84.15 24.78 83.9 24.3L24.29 83.91C24.78 84.15 25.27 84.39 25.76 84.61Z" fill="#D6E5F0"/>
<path d="M31.73 86.86L86.87 31.72C86.71 31.17 86.53 30.62 86.35 30.08L30.09 86.34C30.62 86.53 31.17 86.7 31.73 86.86Z" fill="#D6E5F0"/>
<path d="M38.5 88.3L88.3 38.5C88.22 37.87 88.12 37.24 88.01 36.62L36.62 88.01C37.25 88.13 37.87 88.22 38.5 88.3Z" fill="#D6E5F0"/>
<path d="M44.34 88.69C45.03 88.69 45.71 88.67 46.38 88.64L88.63 46.39C88.66 45.71 88.68 45.03 88.68 44.35C88.68 44.29 88.68 44.24 88.68 44.18L44.17 88.69C44.23 88.69 44.29 88.69 44.34 88.69Z" fill="#D6E5F0"/>
<path d="M56.15 87.1L87.1 56.15C87.36 55.21 87.59 54.26 87.79 53.3L53.3 87.79C54.26 87.59 55.21 87.35 56.15 87.1Z" fill="#D6E5F0"/>
<path d="M82.71 66.59L66.58 82.72C73.26 78.83 78.83 73.26 82.71 66.59Z" fill="#D6E5F0"/>
</svg>
