<svg width="15" height="14" viewBox="0 0 15 14" fill="none" xmlns="http://www.w3.org/2000/svg">
<g id="Instagram">
<g id="Instagram_2">
<rect id="Rectangle" x="0.610474" width="14" height="14" rx="2.91667" fill="#3683BC"/>
<path id="Vector" d="M6.24969 7.00017C6.24969 6.24845 6.85891 5.63889 7.61063 5.63889C8.36236 5.63889 8.97191 6.24845 8.97191 7.00017C8.97191 7.75189 8.36236 8.36144 7.61063 8.36144C6.85891 8.36144 6.24969 7.75189 6.24969 7.00017ZM5.51381 7.00017C5.51381 8.15825 6.45256 9.097 7.61063 9.097C8.76871 9.097 9.70746 8.15825 9.70746 7.00017C9.70746 5.84209 8.76871 4.90334 7.61063 4.90334C6.45256 4.90334 5.51381 5.84209 5.51381 7.00017ZM9.30045 4.8202C9.30041 4.91712 9.32911 5.01187 9.38293 5.09248C9.43674 5.17308 9.51324 5.23592 9.60277 5.27304C9.69229 5.31017 9.79081 5.31991 9.88588 5.30104C9.98094 5.28217 10.0683 5.23554 10.1368 5.16703C10.2054 5.09853 10.2521 5.01124 10.271 4.91619C10.29 4.82114 10.2803 4.72261 10.2433 4.63306C10.2062 4.5435 10.1434 4.46695 10.0629 4.41307C9.98231 4.35919 9.88758 4.33042 9.79067 4.33038H9.79047C9.66056 4.33044 9.53599 4.38206 9.44411 4.4739C9.35223 4.56574 9.30056 4.69029 9.30045 4.8202V4.8202ZM5.9609 10.324C5.56278 10.3059 5.34638 10.2396 5.20258 10.1836C5.01193 10.1093 4.8759 10.0209 4.73288 9.87812C4.58986 9.7353 4.50133 9.5994 4.42743 9.40875C4.37138 9.26501 4.30506 9.04855 4.28696 8.65042C4.26717 8.21999 4.26321 8.09069 4.26321 7.0002C4.26321 5.90971 4.26749 5.78077 4.28696 5.34998C4.30509 4.95185 4.3719 4.73582 4.42743 4.59166C4.50166 4.40101 4.59006 4.26498 4.73288 4.12196C4.8757 3.97894 5.0116 3.89041 5.20258 3.81651C5.34632 3.76045 5.56278 3.69414 5.9609 3.67604C6.39134 3.65624 6.52064 3.65229 7.61063 3.65229C8.70063 3.65229 8.83007 3.65657 9.26086 3.67604C9.65898 3.69417 9.87502 3.76098 10.0192 3.81651C10.2098 3.89041 10.3459 3.97913 10.4889 4.12196C10.6319 4.26478 10.7201 4.40101 10.7943 4.59166C10.8504 4.7354 10.9167 4.95185 10.9348 5.34998C10.9546 5.78077 10.9585 5.90971 10.9585 7.0002C10.9585 8.09069 10.9546 8.21963 10.9348 8.65042C10.9167 9.04855 10.85 9.26494 10.7943 9.40875C10.7201 9.5994 10.6317 9.73543 10.4889 9.87812C10.3461 10.0208 10.2098 10.1093 10.0192 10.1836C9.87544 10.2396 9.65898 10.3059 9.26086 10.324C8.83042 10.3438 8.70112 10.3478 7.61063 10.3478C6.52015 10.3478 6.3912 10.3438 5.9609 10.324V10.324ZM5.92709 2.9414C5.49238 2.9612 5.19533 3.03013 4.93591 3.13107C4.66725 3.23532 4.43982 3.37517 4.21254 3.60208C3.98527 3.82899 3.84578 4.05678 3.74154 4.32545C3.64059 4.58503 3.57166 4.88191 3.55187 5.31662C3.53174 5.75202 3.52714 5.89122 3.52714 7.00017C3.52714 8.10912 3.53174 8.24831 3.55187 8.68371C3.57166 9.11846 3.64059 9.41531 3.74154 9.67489C3.84578 9.94339 3.98531 10.1714 4.21254 10.3983C4.43978 10.6251 4.66725 10.7647 4.93591 10.8693C5.19582 10.9702 5.49238 11.0391 5.92709 11.0589C6.36272 11.0787 6.50169 11.0837 7.61063 11.0837C8.71958 11.0837 8.85878 11.0791 9.29418 11.0589C9.72892 11.0391 10.0258 10.9702 10.2854 10.8693C10.5539 10.7647 10.7815 10.6252 11.0087 10.3983C11.236 10.1713 11.3752 9.94339 11.4797 9.67489C11.5807 9.41531 11.6499 9.11843 11.6694 8.68371C11.6892 8.24799 11.6938 8.10912 11.6938 7.00017C11.6938 5.89122 11.6892 5.75202 11.6694 5.31662C11.6496 4.88188 11.5807 4.58486 11.4797 4.32545C11.3752 4.05695 11.2356 3.82935 11.0087 3.60208C10.7818 3.37481 10.5539 3.23532 10.2857 3.13107C10.0258 3.03013 9.72889 2.96087 9.29451 2.9414C8.85911 2.9216 8.71991 2.91667 7.61096 2.91667C6.50201 2.91667 6.36272 2.92128 5.92709 2.9414Z" fill="white"/>
</g>
</g>
</svg>
