<svg width="13" height="12" viewBox="0 0 13 12" fill="none" xmlns="http://www.w3.org/2000/svg">
<path d="M6.60547 1C3.84547 1 1.61047 3.24 1.61047 6C1.61047 8.76 3.84547 11 6.60547 11C9.37047 11 11.6105 8.76 11.6105 6C11.6105 3.24 9.37047 1 6.60547 1ZM10.0705 4H8.59547C8.43547 3.375 8.20547 2.775 7.90547 2.22C8.82547 2.535 9.59047 3.175 10.0705 4ZM6.61047 2.02C7.02547 2.62 7.35047 3.285 7.56547 4H5.65547C5.87047 3.285 6.19547 2.62 6.61047 2.02ZM2.74047 7C2.66047 6.68 2.61047 6.345 2.61047 6C2.61047 5.655 2.66047 5.32 2.74047 5H4.43047C4.39047 5.33 4.36047 5.66 4.36047 6C4.36047 6.34 4.39047 6.67 4.43047 7H2.74047ZM3.15047 8H4.62547C4.78547 8.625 5.01547 9.225 5.31547 9.78C4.39547 9.465 3.63047 8.83 3.15047 8V8ZM4.62547 4H3.15047C3.63047 3.17 4.39547 2.535 5.31547 2.22C5.01547 2.775 4.78547 3.375 4.62547 4V4ZM6.61047 9.98C6.19547 9.38 5.87047 8.715 5.65547 8H7.56547C7.35047 8.715 7.02547 9.38 6.61047 9.98ZM7.78047 7H5.44047C5.39547 6.67 5.36047 6.34 5.36047 6C5.36047 5.66 5.39547 5.325 5.44047 5H7.78047C7.82547 5.325 7.86047 5.66 7.86047 6C7.86047 6.34 7.82547 6.67 7.78047 7ZM7.90547 9.78C8.20547 9.225 8.43547 8.625 8.59547 8H10.0705C9.59047 8.825 8.82547 9.465 7.90547 9.78V9.78ZM8.79047 7C8.83047 6.67 8.86047 6.34 8.86047 6C8.86047 5.66 8.83047 5.33 8.79047 5H10.4805C10.5605 5.32 10.6105 5.655 10.6105 6C10.6105 6.345 10.5605 6.68 10.4805 7H8.79047Z" fill="#3683BC"/>
</svg>
