<svg width="15" height="14" viewBox="0 0 15 14" fill="none" xmlns="http://www.w3.org/2000/svg">
<g id="LinkedIn">
<g id="LinkedIn_2">
<rect id="Rectangle" x="0.610474" width="14" height="14" rx="2.91667" fill="#3683BC"/>
<g id="Group">
<g id="Group 1">
<path id="Path" d="M11.5725 10.4559C11.1092 10.4449 10.6569 10.4449 10.1936 10.4559C10.0944 10.4559 10.0723 10.4338 10.0723 10.3346C10.0723 9.5183 10.0723 8.691 10.0723 7.87473C10.0723 7.68721 10.0613 7.49969 10.0061 7.3232C9.84065 6.7496 9.17881 6.54002 8.70449 6.92609C8.45078 7.12465 8.35151 7.40041 8.35151 7.73133C8.35151 8.50348 8.35151 9.27562 8.35151 10.0478C8.35151 10.147 8.34048 10.2463 8.35151 10.3566C8.36254 10.4449 8.31842 10.4669 8.2412 10.4559C7.76688 10.4559 7.3036 10.4559 6.82928 10.4559C6.74103 10.4559 6.71897 10.4338 6.71897 10.3456C6.73 9.65067 6.73 8.95574 6.73 8.24977C6.73 7.38938 6.73 6.52899 6.71897 5.67963C6.71897 5.58035 6.74103 5.55829 6.82928 5.55829C7.3036 5.55829 7.76688 5.55829 8.2412 5.55829C8.32945 5.55829 8.35151 5.58035 8.35151 5.6686C8.35151 5.84509 8.35151 6.02158 8.35151 6.23116C8.3846 6.19807 8.39563 6.18704 8.40666 6.17601C8.83686 5.54726 9.44354 5.37077 10.1605 5.48108C10.9878 5.61345 11.5173 6.18704 11.6497 7.06949C11.6828 7.27908 11.6938 7.48866 11.6938 7.69824C11.6938 8.58069 11.6938 9.45212 11.6938 10.3346C11.6938 10.4228 11.6717 10.4559 11.5725 10.4559Z" fill="white"/>
<path id="Path_2" d="M5.83653 8.00709C5.83653 8.77924 5.83653 9.55139 5.83653 10.3235C5.83653 10.4228 5.81447 10.4559 5.7152 10.4559C5.25191 10.4449 4.78862 10.4559 4.32533 10.4559C4.23709 10.4559 4.21503 10.4338 4.21503 10.3456C4.21503 8.79027 4.21503 7.22392 4.21503 5.6686C4.21503 5.59138 4.23709 5.55829 4.32533 5.55829C4.79965 5.55829 5.27397 5.55829 5.74829 5.55829C5.84756 5.55829 5.85859 5.59138 5.85859 5.67963C5.83653 6.45177 5.83653 7.22392 5.83653 8.00709Z" fill="white"/>
<path id="Path_3" d="M5.91374 4.27874C5.80343 4.71997 5.35118 4.97367 4.83274 4.88543C4.2812 4.79718 3.97234 4.25668 4.1709 3.72721C4.30326 3.39629 4.62315 3.19773 5.03129 3.20877C5.649 3.19773 6.05714 3.69411 5.91374 4.27874Z" fill="white"/>
</g>
</g>
</g>
</g>
</svg>
