<svg width="59" height="54" viewBox="0 0 59 54" fill="none" xmlns="http://www.w3.org/2000/svg">
<path d="M1.19958 2.39917C0.54074 2.39917 0 1.86464 0 1.19958C0 0.540745 0.534525 0 1.19958 0C1.86463 0 2.39916 0.53453 2.39916 1.19958C2.39916 1.85842 1.85842 2.39917 1.19958 2.39917Z" fill="#D6E5F0"/>
<path d="M12.4744 2.39917C11.8156 2.39917 11.2749 1.86464 11.2749 1.19958C11.2749 0.540745 11.8094 0 12.4744 0C13.1333 0 13.674 0.53453 13.674 1.19958C13.6678 1.85842 13.1333 2.39917 12.4744 2.39917Z" fill="#D6E5F0"/>
<path d="M23.7431 2.39917C23.0842 2.39917 22.5435 1.86464 22.5435 1.19958C22.5435 0.540745 23.078 0 23.7431 0C24.4019 0 24.9426 0.53453 24.9426 1.19958C24.9426 1.85842 24.4081 2.39917 23.7431 2.39917Z" fill="#D6E5F0"/>
<path d="M35.0179 2.39917C34.3591 2.39917 33.8183 1.86464 33.8183 1.19958C33.8183 0.540745 34.3529 0 35.0179 0C35.6767 0 36.2175 0.53453 36.2175 1.19958C36.2175 1.85842 35.6767 2.39917 35.0179 2.39917Z" fill="#D6E5F0"/>
<path d="M46.2865 2.39917C45.6277 2.39917 45.0869 1.86464 45.0869 1.19958C45.0869 0.540745 45.6215 0 46.2865 0C46.9454 0 47.4861 0.53453 47.4861 1.19958C47.4861 1.85842 46.9516 2.39917 46.2865 2.39917Z" fill="#D6E5F0"/>
<path d="M57.5613 2.39917C56.9025 2.39917 56.3618 1.86464 56.3618 1.19958C56.3618 0.540745 56.8963 0 57.5613 0C58.2264 0 58.7609 0.53453 58.7609 1.19958C58.7609 1.85842 58.2202 2.39917 57.5613 2.39917Z" fill="#D6E5F0"/>
<path d="M1.19958 12.6795C0.54074 12.6795 0 12.145 0 11.4799C0 10.8211 0.534525 10.2804 1.19958 10.2804C1.86463 10.2804 2.39916 10.8149 2.39916 11.4799C2.39916 12.1388 1.85842 12.6795 1.19958 12.6795Z" fill="#D6E5F0"/>
<path d="M12.4744 12.6795C11.8156 12.6795 11.2749 12.145 11.2749 11.4799C11.2749 10.8211 11.8094 10.2804 12.4744 10.2804C13.1333 10.2804 13.674 10.8149 13.674 11.4799C13.6678 12.1388 13.1333 12.6795 12.4744 12.6795Z" fill="#D6E5F0"/>
<path d="M23.7431 12.6795C23.0842 12.6795 22.5435 12.145 22.5435 11.4799C22.5435 10.8211 23.078 10.2804 23.7431 10.2804C24.4019 10.2804 24.9426 10.8149 24.9426 11.4799C24.9426 12.1388 24.4081 12.6795 23.7431 12.6795Z" fill="#D6E5F0"/>
<path d="M35.0179 12.6795C34.3591 12.6795 33.8183 12.145 33.8183 11.4799C33.8183 10.8211 34.3529 10.2804 35.0179 10.2804C35.6767 10.2804 36.2175 10.8149 36.2175 11.4799C36.2175 12.1388 35.6767 12.6795 35.0179 12.6795Z" fill="#D6E5F0"/>
<path d="M46.2865 12.6795C45.6277 12.6795 45.0869 12.145 45.0869 11.4799C45.0869 10.8211 45.6215 10.2804 46.2865 10.2804C46.9454 10.2804 47.4861 10.8149 47.4861 11.4799C47.4861 12.1388 46.9516 12.6795 46.2865 12.6795Z" fill="#D6E5F0"/>
<path d="M57.5613 12.6795C56.9025 12.6795 56.3618 12.145 56.3618 11.4799C56.3618 10.8211 56.8963 10.2804 57.5613 10.2804C58.2264 10.2804 58.7609 10.8149 58.7609 11.4799C58.7609 12.1388 58.2202 12.6795 57.5613 12.6795Z" fill="#D6E5F0"/>
<path d="M1.19958 22.9537C0.54074 22.9537 0 22.4192 0 21.7541C0 21.0953 0.534525 20.5545 1.19958 20.5545C1.86463 20.5545 2.39916 21.0891 2.39916 21.7541C2.39916 22.4192 1.85842 22.9537 1.19958 22.9537Z" fill="#D6E5F0"/>
<path d="M12.4744 22.9537C11.8156 22.9537 11.2749 22.4192 11.2749 21.7541C11.2749 21.0953 11.8094 20.5545 12.4744 20.5545C13.1333 20.5545 13.674 21.089 13.674 21.7541C13.6678 22.4192 13.1333 22.9537 12.4744 22.9537Z" fill="#D6E5F0"/>
<path d="M23.7431 22.9537C23.0842 22.9537 22.5435 22.4192 22.5435 21.7541C22.5435 21.0953 23.078 20.5545 23.7431 20.5545C24.4019 20.5545 24.9426 21.089 24.9426 21.7541C24.9426 22.4192 24.4081 22.9537 23.7431 22.9537Z" fill="#D6E5F0"/>
<path d="M35.0179 22.9537C34.3591 22.9537 33.8183 22.4192 33.8183 21.7541C33.8183 21.0953 34.3529 20.5545 35.0179 20.5545C35.6767 20.5545 36.2175 21.089 36.2175 21.7541C36.2175 22.4192 35.6767 22.9537 35.0179 22.9537Z" fill="#D6E5F0"/>
<path d="M46.2865 22.9537C45.6277 22.9537 45.0869 22.4192 45.0869 21.7541C45.0869 21.0953 45.6215 20.5545 46.2865 20.5545C46.9454 20.5545 47.4861 21.089 47.4861 21.7541C47.4861 22.4192 46.9516 22.9537 46.2865 22.9537Z" fill="#D6E5F0"/>
<path d="M57.5613 22.9537C56.9025 22.9537 56.3618 22.4192 56.3618 21.7541C56.3618 21.0953 56.8963 20.5545 57.5613 20.5545C58.2264 20.5545 58.7609 21.089 58.7609 21.7541C58.7609 22.4192 58.2202 22.9537 57.5613 22.9537Z" fill="#D6E5F0"/>
<path d="M1.19958 33.2341C0.54074 33.2341 0 32.6995 0 32.0345C0 31.3756 0.534525 30.8349 1.19958 30.8349C1.86463 30.8349 2.39916 31.3694 2.39916 32.0345C2.39916 32.6933 1.85842 33.2341 1.19958 33.2341Z" fill="#D6E5F0"/>
<path d="M12.4744 33.2341C11.8156 33.2341 11.2749 32.6995 11.2749 32.0345C11.2749 31.3756 11.8094 30.8349 12.4744 30.8349C13.1333 30.8349 13.674 31.3694 13.674 32.0345C13.6678 32.6933 13.1333 33.2341 12.4744 33.2341Z" fill="#D6E5F0"/>
<path d="M23.7431 33.2341C23.0842 33.2341 22.5435 32.6995 22.5435 32.0345C22.5435 31.3756 23.078 30.8349 23.7431 30.8349C24.4019 30.8349 24.9426 31.3694 24.9426 32.0345C24.9426 32.6933 24.4081 33.2341 23.7431 33.2341Z" fill="#D6E5F0"/>
<path d="M35.0179 33.2341C34.3591 33.2341 33.8183 32.6995 33.8183 32.0345C33.8183 31.3756 34.3529 30.8349 35.0179 30.8349C35.6767 30.8349 36.2175 31.3694 36.2175 32.0345C36.2175 32.6933 35.6767 33.2341 35.0179 33.2341Z" fill="#D6E5F0"/>
<path d="M46.2865 33.2341C45.6277 33.2341 45.0869 32.6995 45.0869 32.0345C45.0869 31.3756 45.6215 30.8349 46.2865 30.8349C46.9454 30.8349 47.4861 31.3694 47.4861 32.0345C47.4861 32.6933 46.9516 33.2341 46.2865 33.2341Z" fill="#D6E5F0"/>
<path d="M57.5613 33.2341C56.9025 33.2341 56.3618 32.6995 56.3618 32.0345C56.3618 31.3756 56.8963 30.8349 57.5613 30.8349C58.2264 30.8349 58.7609 31.3694 58.7609 32.0345C58.7609 32.6933 58.2202 33.2341 57.5613 33.2341Z" fill="#D6E5F0"/>
<path d="M1.19958 43.5144C0.54074 43.5144 0 42.9799 0 42.3148C0 41.656 0.534525 41.1153 1.19958 41.1153C1.86463 41.1153 2.39916 41.6498 2.39916 42.3148C2.39916 42.9737 1.85842 43.5144 1.19958 43.5144Z" fill="#D6E5F0"/>
<path d="M12.4744 43.5144C11.8156 43.5144 11.2749 42.9799 11.2749 42.3148C11.2749 41.656 11.8094 41.1153 12.4744 41.1153C13.1333 41.1153 13.674 41.6498 13.674 42.3148C13.6678 42.9737 13.1333 43.5144 12.4744 43.5144Z" fill="#D6E5F0"/>
<path d="M23.7431 43.5144C23.0842 43.5144 22.5435 42.9799 22.5435 42.3148C22.5435 41.656 23.078 41.1153 23.7431 41.1153C24.4019 41.1153 24.9426 41.6498 24.9426 42.3148C24.9426 42.9737 24.4081 43.5144 23.7431 43.5144Z" fill="#D6E5F0"/>
<path d="M35.0179 43.5144C34.3591 43.5144 33.8183 42.9799 33.8183 42.3148C33.8183 41.656 34.3529 41.1153 35.0179 41.1153C35.6767 41.1153 36.2175 41.6498 36.2175 42.3148C36.2175 42.9737 35.6767 43.5144 35.0179 43.5144Z" fill="#D6E5F0"/>
<path d="M46.2865 43.5144C45.6277 43.5144 45.0869 42.9799 45.0869 42.3148C45.0869 41.656 45.6215 41.1153 46.2865 41.1153C46.9454 41.1153 47.4861 41.6498 47.4861 42.3148C47.4861 42.9737 46.9516 43.5144 46.2865 43.5144Z" fill="#D6E5F0"/>
<path d="M57.5613 43.5144C56.9025 43.5144 56.3618 42.9799 56.3618 42.3148C56.3618 41.656 56.8963 41.1153 57.5613 41.1153C58.2264 41.1153 58.7609 41.6498 58.7609 42.3148C58.7609 42.9737 58.2202 43.5144 57.5613 43.5144Z" fill="#D6E5F0"/>
<path d="M1.19958 53.7886C0.54074 53.7886 0 53.254 0 52.589C0 51.9301 0.534525 51.3894 1.19958 51.3894C1.86463 51.3894 2.39916 51.9239 2.39916 52.589C2.39916 53.254 1.85842 53.7886 1.19958 53.7886Z" fill="#D6E5F0"/>
<path d="M12.4744 53.7886C11.8156 53.7886 11.2749 53.2541 11.2749 52.589C11.2749 51.9302 11.8094 51.3894 12.4744 51.3894C13.1333 51.3894 13.674 51.9239 13.674 52.589C13.6678 53.2541 13.1333 53.7886 12.4744 53.7886Z" fill="#D6E5F0"/>
<path d="M23.7431 53.7886C23.0842 53.7886 22.5435 53.2541 22.5435 52.589C22.5435 51.9302 23.078 51.3894 23.7431 51.3894C24.4019 51.3894 24.9426 51.9239 24.9426 52.589C24.9426 53.2541 24.4081 53.7886 23.7431 53.7886Z" fill="#D6E5F0"/>
<path d="M35.0179 53.7886C34.3591 53.7886 33.8183 53.2541 33.8183 52.589C33.8183 51.9302 34.3529 51.3894 35.0179 51.3894C35.6767 51.3894 36.2175 51.9239 36.2175 52.589C36.2175 53.2541 35.6767 53.7886 35.0179 53.7886Z" fill="#D6E5F0"/>
<path d="M46.2865 53.7886C45.6277 53.7886 45.0869 53.2541 45.0869 52.589C45.0869 51.9302 45.6215 51.3894 46.2865 51.3894C46.9454 51.3894 47.4861 51.9239 47.4861 52.589C47.4861 53.2541 46.9516 53.7886 46.2865 53.7886Z" fill="#D6E5F0"/>
<path d="M57.5613 53.7886C56.9025 53.7886 56.3618 53.2541 56.3618 52.589C56.3618 51.9302 56.8963 51.3894 57.5613 51.3894C58.2264 51.3894 58.7609 51.9239 58.7609 52.589C58.7609 53.2541 58.2202 53.7886 57.5613 53.7886Z" fill="#D6E5F0"/>
</svg>
