<svg width="15" height="14" viewBox="0 0 15 14" fill="none" xmlns="http://www.w3.org/2000/svg">
<g id="YouTube">
<g id="YouTube_2">
<rect id="Rectangle" x="0.610474" width="14" height="14" rx="2.91667" fill="#3683BC"/>
<path id="Exclude" fill-rule="evenodd" clip-rule="evenodd" d="M10.8058 4.25823C11.1556 4.35241 11.4314 4.62822 11.5256 4.97803C11.7005 5.61709 11.6938 6.94905 11.6938 6.94905C11.6938 6.94905 11.6938 8.27428 11.5256 8.91335C11.4314 9.26315 11.1556 9.53896 10.8058 9.63314C10.1667 9.80132 7.61045 9.80132 7.61045 9.80132C7.61045 9.80132 5.0609 9.80132 4.41511 9.62641C4.0653 9.53223 3.78949 9.25643 3.69531 8.90662C3.52714 8.27428 3.52714 6.94232 3.52714 6.94232C3.52714 6.94232 3.52714 5.61709 3.69531 4.97803C3.78949 4.62822 4.07203 4.34568 4.41511 4.2515C5.05418 4.08333 7.61045 4.08333 7.61045 4.08333C7.61045 4.08333 10.1667 4.08333 10.8058 4.25823ZM8.9222 6.94232L6.79646 8.16664V5.718L8.9222 6.94232Z" fill="white"/>
</g>
</g>
</svg>
